<?xml version="1.0" encoding="utf-8"?>
<!DOCTYPE svg PUBLIC "-//W3C//DTD SVG 1.1//EN" "http://www.w3.org/Graphics/SVG/1.1/DTD/svg11.dtd">
<svg  version="1.1" id="Layer_1" xmlns="http://www.w3.org/2000/svg" xmlns:xlink="http://www.w3.org/1999/xlink" width="630" height="414" viewBox="0 0 630 414"
	 overflow="visible" enable-background="new 0 0 630 414" xml:space="preserve">
<rect x="27" y="27" fill="none" stroke="#000000" stroke-width="2" width="144" height="144"/>
<rect x="72" y="72" fill="none" stroke="#000000" stroke-width="2" width="54" height="54"/>
<line fill="none" stroke="#DC0000" stroke-width="2" x1="27" y1="27" x2="72" y2="72"/>
<line fill="none" stroke="#000000" stroke-width="2" x1="126" y1="72" x2="171" y2="27"/>
<line fill="none" stroke="#000000" stroke-width="2" x1="126" y1="126" x2="171" y2="171"/>
<line fill="none" stroke="#000000" stroke-width="2" x1="72" y1="126" x2="27" y2="171"/>
<circle fill="#DC0000" stroke="#000000" stroke-width="2" cx="27" cy="27" r="9"/>
<circle fill="#DC0000" stroke="#000000" stroke-width="2" cx="72" cy="72" r="9"/>
<circle fill="#F0DCC8" stroke="#000000" stroke-width="2" cx="171" cy="27" r="9"/>
<circle fill="#F0DCC8" stroke="#000000" stroke-width="2" cx="126" cy="72" r="9"/>
<circle fill="#F0DCC8" stroke="#000000" stroke-width="2" cx="126" cy="126" r="9"/>
<circle fill="#F0DCC8" stroke="#000000" stroke-width="2" cx="171" cy="171" r="9"/>
<circle fill="#F0DCC8" stroke="#000000" stroke-width="2" cx="72" cy="126" r="9"/>
<circle fill="#F0DCC8" stroke="#000000" stroke-width="2" cx="27" cy="171" r="9"/>
<rect x="243" y="27" fill="none" stroke="#000000" stroke-width="2" width="144" height="144"/>
<rect x="288" y="72" fill="none" stroke="#000000" stroke-width="2" width="54" height="54"/>
<line fill="none" stroke="#DC0000" stroke-width="2" x1="243" y1="27" x2="387" y2="27"/>
<line fill="none" stroke="#000000" stroke-width="2" x1="243" y1="27" x2="288" y2="72"/>
<line fill="none" stroke="#000000" stroke-width="2" x1="342" y1="72" x2="387" y2="27"/>
<line fill="none" stroke="#000000" stroke-width="2" x1="342" y1="126" x2="387" y2="171"/>
<line fill="none" stroke="#000000" stroke-width="2" x1="288" y1="126" x2="243" y2="171"/>
<circle fill="#DC0000" stroke="#000000" stroke-width="2" cx="243" cy="27" r="9"/>
<circle fill="#F0DCC8" stroke="#000000" stroke-width="2" cx="288" cy="72" r="9"/>
<circle fill="#DC0000" stroke="#000000" stroke-width="2" cx="387" cy="27" r="9"/>
<circle fill="#F0DCC8" stroke="#000000" stroke-width="2" cx="342" cy="72" r="9"/>
<circle fill="#F0DCC8" stroke="#000000" stroke-width="2" cx="342" cy="126" r="9"/>
<circle fill="#F0DCC8" stroke="#000000" stroke-width="2" cx="387" cy="171" r="9"/>
<circle fill="#F0DCC8" stroke="#000000" stroke-width="2" cx="288" cy="126" r="9"/>
<circle fill="#F0DCC8" stroke="#000000" stroke-width="2" cx="243" cy="171" r="9"/>
<rect x="459" y="27" fill="none" stroke="#000000" stroke-width="2" width="144" height="144"/>
<rect x="504" y="72" fill="none" stroke="#000000" stroke-width="2" width="54" height="54"/>
<line fill="none" stroke="#DC0000" stroke-width="2" x1="504" y1="72" x2="558" y2="72"/>
<line fill="none" stroke="#000000" stroke-width="2" x1="459" y1="27" x2="504" y2="72"/>
<line fill="none" stroke="#000000" stroke-width="2" x1="558" y1="72" x2="603" y2="27"/>
<line fill="none" stroke="#000000" stroke-width="2" x1="558" y1="126" x2="603" y2="171"/>
<line fill="none" stroke="#000000" stroke-width="2" x1="504" y1="126" x2="459" y2="171"/>
<circle fill="#F0DCC8" stroke="#000000" stroke-width="2" cx="459" cy="27" r="9"/>
<circle fill="#DC0000" stroke="#000000" stroke-width="2" cx="504" cy="72" r="9"/>
<circle fill="#F0DCC8" stroke="#000000" stroke-width="2" cx="603" cy="27" r="9"/>
<circle fill="#DC0000" stroke="#000000" stroke-width="2" cx="558" cy="72" r="9"/>
<circle fill="#F0DCC8" stroke="#000000" stroke-width="2" cx="558" cy="126" r="9"/>
<circle fill="#DC0000" stroke="#000000" stroke-width="2" cx="603" cy="171" r="9"/>
<circle fill="#F0DCC8" stroke="#000000" stroke-width="2" cx="504" cy="126" r="9"/>
<circle fill="#F0DCC8" stroke="#000000" stroke-width="2" cx="459" cy="171" r="9"/>
<rect x="27" y="243" fill="none" stroke="#000000" stroke-width="2" width="144" height="144"/>
<rect x="72" y="288" fill="none" stroke="#000000" stroke-width="2" width="54" height="54"/>
<line fill="none" stroke="#DC0000" stroke-width="2" x1="72" y1="288" x2="72" y2="342"/>
<line fill="none" stroke="#000000" stroke-width="2" x1="27" y1="243" x2="72" y2="288"/>
<line fill="none" stroke="#000000" stroke-width="2" x1="126" y1="288" x2="171" y2="243"/>
<line fill="none" stroke="#000000" stroke-width="2" x1="126" y1="342" x2="171" y2="387"/>
<line fill="none" stroke="#DC0000" stroke-width="2" x1="72" y1="342" x2="27" y2="387"/>
<circle fill="#F0DCC8" stroke="#000000" stroke-width="2" cx="27" cy="243" r="9"/>
<circle fill="#DC0000" stroke="#000000" stroke-width="2" cx="72" cy="288" r="9"/>
<circle fill="#DC0000" stroke="#000000" stroke-width="2" cx="171" cy="243" r="9"/>
<circle fill="#F0DCC8" stroke="#000000" stroke-width="2" cx="126" cy="288" r="9"/>
<circle fill="#F0DCC8" stroke="#000000" stroke-width="2" cx="126" cy="342" r="9"/>
<circle fill="#F0DCC8" stroke="#000000" stroke-width="2" cx="171" cy="387" r="9"/>
<circle fill="#DC0000" stroke="#000000" stroke-width="2" cx="72" cy="342" r="9"/>
<circle fill="#DC0000" stroke="#000000" stroke-width="2" cx="27" cy="387" r="9"/>
<rect x="243" y="243" fill="none" stroke="#000000" stroke-width="2" width="144" height="144"/>
<rect x="288" y="288" fill="none" stroke="#000000" stroke-width="2" width="54" height="54"/>
<line fill="none" stroke="#DC0000" stroke-width="2" x1="243" y1="243" x2="387" y2="243"/>
<line fill="none" stroke="#DC0000" stroke-width="2" x1="243" y1="243" x2="243" y2="387"/>
<line fill="none" stroke="#000000" stroke-width="2" x1="243" y1="243" x2="288" y2="288"/>
<line fill="none" stroke="#DC0000" stroke-width="2" x1="342" y1="288" x2="387" y2="243"/>
<line fill="none" stroke="#000000" stroke-width="2" x1="342" y1="342" x2="387" y2="387"/>
<line fill="none" stroke="#000000" stroke-width="2" x1="288" y1="342" x2="243" y2="387"/>
<circle fill="#DC0000" stroke="#000000" stroke-width="2" cx="243" cy="243" r="9"/>
<circle fill="#F0DCC8" stroke="#000000" stroke-width="2" cx="288" cy="288" r="9"/>
<circle fill="#DC0000" stroke="#000000" stroke-width="2" cx="387" cy="243" r="9"/>
<circle fill="#DC0000" stroke="#000000" stroke-width="2" cx="342" cy="288" r="9"/>
<circle fill="#F0DCC8" stroke="#000000" stroke-width="2" cx="342" cy="342" r="9"/>
<circle fill="#F0DCC8" stroke="#000000" stroke-width="2" cx="387" cy="387" r="9"/>
<circle fill="#F0DCC8" stroke="#000000" stroke-width="2" cx="288" cy="342" r="9"/>
<circle fill="#DC0000" stroke="#000000" stroke-width="2" cx="243" cy="387" r="9"/>
<rect x="459" y="243" fill="none" stroke="#DC0000" stroke-width="2" width="144" height="144"/>
<rect x="504" y="288" fill="none" stroke="#DC0000" stroke-width="2" width="54" height="54"/>
<line fill="none" stroke="#DC0000" stroke-width="2" x1="459" y1="243" x2="504" y2="288"/>
<line fill="none" stroke="#DC0000" stroke-width="2" x1="558" y1="288" x2="603" y2="243"/>
<line fill="none" stroke="#DC0000" stroke-width="2" x1="558" y1="342" x2="603" y2="387"/>
<line fill="none" stroke="#DC0000" stroke-width="2" x1="504" y1="342" x2="459" y2="387"/>
<circle fill="#DC0000" stroke="#000000" stroke-width="2" cx="459" cy="243" r="9"/>
<circle fill="#DC0000" stroke="#000000" stroke-width="2" cx="504" cy="288" r="9"/>
<circle fill="#DC0000" stroke="#000000" stroke-width="2" cx="603" cy="243" r="9"/>
<circle fill="#DC0000" stroke="#000000" stroke-width="2" cx="558" cy="288" r="9"/>
<circle fill="#DC0000" stroke="#000000" stroke-width="2" cx="558" cy="342" r="9"/>
<circle fill="#DC0000" stroke="#000000" stroke-width="2" cx="603" cy="387" r="9"/>
<circle fill="#DC0000" stroke="#000000" stroke-width="2" cx="504" cy="342" r="9"/>
<circle fill="#DC0000" stroke="#000000" stroke-width="2" cx="459" cy="387" r="9"/>
<rect fill="none" width="630" height="414"/>
</svg>
